<?xml version="1.0" encoding="utf-8"?>
<svg width="600px" height="600px" viewBox="0 0 600 600" version="1.1" xmlns:xlink="http://www.w3.org/1999/xlink" xmlns="http://www.w3.org/2000/svg">
  <path d="M299.999 0L300.001 0Q307.366 0 314.721 0.361362Q322.077 0.722724 329.406 1.44458Q336.735 2.16643 344.02 3.24704Q351.305 4.32764 358.528 5.7644Q365.751 7.20115 372.895 8.99059Q380.039 10.78 387.086 12.9179Q394.133 15.0557 401.068 17.5367Q408.002 20.0178 414.806 22.8361Q421.61 25.6544 428.267 28.8031Q434.925 31.9519 441.419 35.4235Q447.914 38.8951 454.231 42.6813Q460.548 46.4674 466.671 50.5589Q472.795 54.6505 478.71 59.0375Q484.625 63.4246 490.318 68.0966Q496.011 72.7687 501.468 77.7144Q506.925 82.6601 512.132 87.8677Q517.34 93.0752 522.286 98.532Q527.231 103.989 531.903 109.682Q536.575 115.375 540.962 121.29Q545.349 127.205 549.441 133.328Q553.532 139.452 557.319 145.769Q561.105 152.085 564.576 158.58Q568.048 165.075 571.197 171.733Q574.346 178.39 577.164 185.194Q579.982 191.998 582.463 198.932Q584.944 205.866 587.082 212.914Q589.22 219.961 591.009 227.105Q592.799 234.249 594.236 241.472Q595.672 248.695 596.753 255.98Q597.834 263.265 598.555 270.594Q599.277 277.923 599.639 285.279Q600 292.634 600 299.999L600 300.001Q600 307.366 599.639 314.721Q599.277 322.077 598.555 329.406Q597.834 336.735 596.753 344.02Q595.672 351.305 594.236 358.528Q592.799 365.751 591.009 372.895Q589.22 380.039 587.082 387.086Q584.944 394.134 582.463 401.068Q579.982 408.002 577.164 414.806Q574.346 421.61 571.197 428.267Q568.048 434.925 564.576 441.419Q561.105 447.914 557.319 454.231Q553.532 460.548 549.441 466.671Q545.349 472.795 540.962 478.71Q536.575 484.625 531.903 490.318Q527.231 496.011 522.286 501.468Q517.34 506.925 512.132 512.132Q506.925 517.34 501.468 522.286Q496.011 527.231 490.318 531.903Q484.625 536.575 478.71 540.962Q472.795 545.349 466.671 549.441Q460.548 553.532 454.231 557.319Q447.914 561.105 441.419 564.576Q434.925 568.048 428.267 571.197Q421.61 574.346 414.806 577.164Q408.002 579.982 401.068 582.463Q394.133 584.944 387.086 587.082Q380.039 589.22 372.895 591.009Q365.751 592.799 358.528 594.236Q351.305 595.672 344.02 596.753Q336.735 597.834 329.406 598.555Q322.077 599.277 314.721 599.639Q307.366 600 300.001 600L299.999 600Q292.634 600 285.279 599.639Q277.923 599.277 270.594 598.555Q263.265 597.834 255.98 596.753Q248.695 595.672 241.472 594.236Q234.249 592.799 227.105 591.009Q219.961 589.22 212.914 587.082Q205.866 584.944 198.932 582.463Q191.998 579.982 185.194 577.164Q178.39 574.346 171.733 571.197Q165.075 568.048 158.58 564.576Q152.085 561.105 145.769 557.319Q139.452 553.532 133.328 549.441Q127.205 545.349 121.29 540.962Q115.375 536.575 109.682 531.903Q103.989 527.231 98.532 522.286Q93.0752 517.34 87.8677 512.132Q82.6601 506.925 77.7144 501.468Q72.7687 496.011 68.0966 490.318Q63.4246 484.625 59.0375 478.71Q54.6505 472.795 50.5589 466.671Q46.4674 460.548 42.6813 454.231Q38.8951 447.914 35.4235 441.419Q31.9519 434.925 28.8031 428.267Q25.6544 421.61 22.8361 414.806Q20.0178 408.002 17.5367 401.068Q15.0557 394.133 12.9179 387.086Q10.78 380.039 8.99059 372.895Q7.20115 365.751 5.7644 358.528Q4.32764 351.305 3.24704 344.02Q2.16643 336.735 1.44458 329.406Q0.722724 322.077 0.361362 314.721Q0 307.366 0 300.001L0 299.999Q0 292.634 0.361362 285.279Q0.722724 277.923 1.44458 270.594Q2.16643 263.265 3.24704 255.98Q4.32764 248.695 5.7644 241.472Q7.20115 234.249 8.99059 227.105Q10.78 219.961 12.9179 212.914Q15.0557 205.866 17.5367 198.932Q20.0178 191.998 22.8361 185.194Q25.6544 178.39 28.8031 171.733Q31.9519 165.075 35.4235 158.58Q38.8951 152.085 42.6813 145.769Q46.4674 139.452 50.5589 133.328Q54.6505 127.205 59.0375 121.29Q63.4246 115.375 68.0966 109.682Q72.7687 103.989 77.7144 98.532Q82.6601 93.0752 87.8677 87.8677Q93.0752 82.6601 98.532 77.7144Q103.989 72.7687 109.682 68.0966Q115.375 63.4246 121.29 59.0375Q127.205 54.6505 133.328 50.5589Q139.452 46.4674 145.769 42.6813Q152.085 38.8951 158.58 35.4235Q165.075 31.9519 171.733 28.8031Q178.39 25.6544 185.194 22.8361Q191.998 20.0178 198.932 17.5367Q205.866 15.0557 212.914 12.9179Q219.961 10.78 227.105 8.99059Q234.249 7.20115 241.472 5.7644Q248.695 4.32764 255.98 3.24704Q263.265 2.16643 270.594 1.44458Q277.923 0.722724 285.279 0.361362Q292.634 0 299.999 0Z" id="Прямоугольник" fill="#0A363B" fill-rule="evenodd" stroke="none" />
  <g id="Группа" transform="translate(72 402.39728)">
    <path d="M26 74L407 74L407 114L26 114L26 74Z" id="Прямоугольник-2" fill="#FFEE01" fill-rule="evenodd" stroke="none" />
    <path d="M0 0L26 0L26 74L0 74L0 0Z" id="Прямоугольник-3" fill="#FFEE01" fill-rule="evenodd" stroke="none" />
    <path d="M404 0L430 0L430 74L404 74L404 0Z" id="Прямоугольник-4" fill="#FFEE01" fill-rule="evenodd" stroke="none" />
  </g>
  <g id="WindowsApp" transform="translate(98 402.39728)">
    <path d="M131.904 59.168Q136.896 56.864 141.632 55.52L141.632 54.56Q138.88 54.56 138.304 54.24Q137.344 53.792 137.344 51.808L137.344 14.688Q130.688 16.864 127.744 17.504L127.744 18.784Q130.624 18.784 130.944 18.912Q131.904 19.296 131.904 21.472L131.904 31.776Q129.792 29.088 125.504 29.088Q119.808 29.088 115.84 33.78Q111.872 38.472 111.872 44.835Q111.872 52.034 115.84 56.019Q119.04 59.168 122.944 59.168Q128.64 59.168 131.904 54.56L131.904 59.168ZM71.168 20.384Q72.128 19.488 72.128 18.08Q72.128 16.672 71.168 15.712Q70.208 14.752 68.8 14.752Q67.392 14.752 66.496 15.712Q65.6 16.672 65.6 18.08Q65.6 19.488 66.496 20.384Q67.392 21.28 68.8 21.28Q70.208 21.28 71.168 20.384ZM274.176 58.4L290.496 58.4L290.496 57.184Q287.168 57.184 285.44 53.216L268.864 15.136L267.519 15.136L252.48 50.912Q249.856 57.184 246.272 57.184L246.272 58.4L259.008 58.4L259.008 57.184Q254.528 57.184 254.528 54.23Q254.649 53.01 255.312 51.276L257.989 44.576L274.908 44.576L278.141 52.485Q278.72 54.03 278.72 54.802Q278.734 55.3193 278.527 55.7243Q277.783 57.184 274.176 57.184L274.176 58.4ZM54.784 21.472Q56.256 17.248 59.904 17.248L59.904 16.032L47.232 16.032L47.232 17.248Q51.328 17.248 51.52 20.128Q51.648 22.176 50.943 24.096L42.615 46.409L32.96 21.664Q32.384 20.192 32.448 19.424Q32.448 19.069 32.5792 18.7719Q33.2521 17.248 37.376 17.248L37.376 16.032L20.288 16.032L20.288 17.248Q24.62 17.248 26.276 21.611L28.844 28.372L22.032 46.389L12.606 21.386Q12.032 20.113 12.032 19.476Q12.018 18.9874 12.2133 18.6059Q12.9084 17.248 16.256 17.248L16.256 16.032L0.576 16.032L0.576 17.248Q3.136 17.248 4.864 19.808Q6.08 21.536 7.808 26.4L19.584 59.296L20.435 59.303L30.338 32.023L40.636 59.297L41.473 59.296L54.784 21.472ZM266.472 24.232L273.906 41.952L259.023 41.952L266.472 24.232ZM61.824 58.4L76.992 58.4L76.992 57.504Q72.128 57.504 72.128 53.408L72.128 29.024L61.824 32.48L61.824 33.44Q63.296 32.928 64.256 32.928Q66.688 32.928 66.688 36.256L66.688 53.408Q66.688 57.504 61.824 57.504L61.824 58.4ZM109.568 58.4L96.064 58.4L96.064 57.504Q100.096 57.504 100.096 53.408L100.096 37.28Q100.096 34.912 98.72 33.696Q97.344 32.48 95.296 32.48Q91.776 32.48 88.256 36.192L88.256 53.408Q88.256 57.504 92.288 57.504L92.288 58.4L78.784 58.4L78.784 57.504Q82.816 57.504 82.816 53.408L82.816 36.064Q82.816 34.016 81.984 33.44Q81.152 32.864 78.784 32.992L78.784 32.096L88.256 29.088L88.256 34.336Q92.672 29.088 98.176 29.088Q105.536 29.088 105.536 38.816L105.536 53.408Q105.536 55.4883 106.576 56.512Q107.584 57.504 109.568 57.504L109.568 58.4ZM172.288 44Q171.968 50.592 167.808 54.88Q163.648 59.168 157.568 59.04Q151.872 58.912 148 54.592Q144.128 50.272 144.128 44Q144.128 37.536 147.776 33.44Q151.616 29.088 158.208 29.088Q164.736 29.088 168.672 33.248Q172.608 37.408 172.288 44ZM242.688 50.72Q242.688 54.688 239.744 56.992Q237.056 59.04 233.216 59.04Q231.808 59.04 229.472 58.336Q227.136 57.632 225.984 57.632Q224.576 57.632 224.576 58.528L223.68 58.528L223.68 48.608L224.768 48.608Q226.56 57.568 232.832 57.568Q235.008 57.568 236.48 56.483Q238.208 55.27 238.208 53.099Q238.208 50.034 233.329 47.225L228.92 44.654Q223.68 41.579 223.68 36.903Q223.68 33.828 226.08 31.458Q228.48 29.088 232.384 29.088Q234.304 29.088 236.16 29.792Q238.016 30.496 238.72 30.496Q239.488 30.496 239.744 29.664L240.576 29.664L240.576 38.368L239.552 38.368Q237.632 30.56 232.512 30.56Q230.592 30.56 229.12 31.712Q227.648 32.864 227.648 34.72Q227.648 37.472 232.448 40.352L236.928 43.04Q242.688 46.496 242.688 50.72ZM321.664 43.168Q321.664 49.632 317.824 54.24Q313.792 59.04 307.712 59.04Q304.576 59.04 301.824 56.288L301.824 67.424Q301.824 71.328 307.136 71.328L307.136 72.288L291.712 72.288L291.712 71.328Q296.384 71.328 296.384 67.424L296.384 35.872Q296.384 33.824 295.456 33.344Q294.528 32.864 291.712 32.928L291.712 32.096L301.824 29.088L301.824 33.696Q305.28 29.088 310.912 29.088Q316.096 29.088 318.976 32.992Q321.664 36.768 321.664 43.168ZM349.824 54.24Q353.664 49.632 353.664 43.168Q353.664 36.768 350.976 32.992Q348.096 29.088 342.912 29.088Q337.28 29.088 333.824 33.696L333.824 29.088L323.712 32.096L323.712 32.928Q326.528 32.864 327.456 33.344Q328.384 33.824 328.384 35.872L328.384 67.424Q328.384 71.328 323.712 71.328L323.712 72.288L339.136 72.288L339.136 71.328Q333.824 71.328 333.824 67.424L333.824 56.288Q336.576 59.04 339.712 59.04Q345.792 59.04 349.824 54.24ZM215.872 34.464Q217.408 30.624 218.688 30.624L218.688 29.728L210.816 29.728L210.816 30.624Q213.312 30.624 213.568 32.16Q213.76 33.376 212.929 35.424L206.786 50.601L200.576 34.402Q200.32 33.761 200.32 32.545Q200.32 30.624 204.032 30.624L204.032 29.728L191.04 29.728L191.04 30.624Q194.176 30.624 195.328 34.272L196.672 38.56L190.913 50.974L184.982 35.863Q184.192 33.946 184.192 32.605Q184.192 30.624 187.136 30.624L187.136 29.728L175.616 29.728L175.616 30.624Q177.024 30.624 177.856 31.712Q178.24 32.288 179.136 34.528L188.8 58.592Q188.996 59.04 189.389 59.04Q189.717 59.04 189.913 58.604L198.081 41.301L205.075 58.649Q205.201 59.04 205.641 59.04Q205.955 59.04 206.081 58.656L215.872 34.464ZM131.904 38.148L131.904 51.85Q130.816 54.295 129.44 55.1955Q128.064 56.096 125.568 56.096Q121.792 56.096 119.552 52.172Q117.376 48.505 117.376 42.844Q117.376 38.02 119.296 34.803Q121.536 31.008 125.568 31.008Q128.256 31.008 130.08 32.938Q131.904 34.868 131.904 38.148ZM166.4 46.56Q166.4 40.16 164.416 36.064Q161.984 31.008 157.056 31.008Q153.6 31.008 151.744 34.08Q150.016 36.896 150.016 41.44Q150.016 47.584 152.128 52Q154.56 57.12 158.976 57.12Q162.88 57.12 164.864 53.408Q166.4 50.528 166.4 46.56ZM316.16 45.536Q316.16 39.776 314.304 36.384Q312.256 32.672 308.288 32.672Q304.512 32.672 301.824 36.064L301.824 52.256Q301.824 53.92 303.936 55.456Q306.048 56.992 308.288 56.992Q312 56.992 314.24 53.344Q316.16 50.144 316.16 45.536ZM346.304 36.384Q348.16 39.776 348.16 45.536Q348.16 50.144 346.24 53.344Q344 56.992 340.288 56.992Q338.048 56.992 335.936 55.456Q333.824 53.92 333.824 52.256L333.824 36.064Q336.512 32.672 340.288 32.672Q344.256 32.672 346.304 36.384Z" />
  </g>
  <path d="M279 0.397278L301 0.397278L301 374.397L279 374.397L279 0.397278Z" id="Прямоугольник-2" fill="#FFEE01" fill-rule="evenodd" stroke="none" />
  <path d="M204 310.397L219.556 294.841L302.995 378.279L287.439 393.836L204 310.397Z" id="Прямоугольник-4" fill="#FFEE01" fill-rule="evenodd" stroke="none" />
  <path d="M356 294.397L371.556 309.954L288.118 393.392L272.561 377.836L356 294.397Z" id="Прямоугольник-5" fill="#FFEE01" fill-rule="evenodd" stroke="none" />
</svg>